<mxfile host="Electron" agent="Mozilla/5.0 (X11; Linux x86_64) AppleWebKit/537.36 (KHTML, like Gecko) draw.io/24.7.8 Chrome/128.0.6613.84 Electron/32.0.2 Safari/537.36" version="24.7.8" pages="2">
  <diagram name="Page-1" id="vSwhyiz1Xy6Y2kjDcV_P">
    <mxGraphModel dx="1434" dy="837" grid="1" gridSize="10" guides="1" tooltips="1" connect="1" arrows="1" fold="1" page="1" pageScale="1" pageWidth="827" pageHeight="1169" background="none" math="1" shadow="0">
      <root>
        <mxCell id="0" />
        <mxCell id="1" parent="0" />
        <mxCell id="bgm6wxLMQWX_yGzGKck9-151" value="" style="rounded=0;whiteSpace=wrap;html=1;fontFamily=jetbrains mono;fontSize=13;" parent="1" vertex="1">
          <mxGeometry x="80.01" y="610" width="245" height="280" as="geometry" />
        </mxCell>
        <mxCell id="bgm6wxLMQWX_yGzGKck9-150" value="" style="rounded=0;whiteSpace=wrap;html=1;fontFamily=jetbrains mono;fontSize=13;fillColor=#4C0099;fillStyle=solid;gradientColor=none;glass=0;shadow=0;opacity=50;" parent="1" vertex="1">
          <mxGeometry x="470" y="320" width="180" height="220" as="geometry" />
        </mxCell>
        <mxCell id="bgm6wxLMQWX_yGzGKck9-74" style="edgeStyle=orthogonalEdgeStyle;rounded=0;orthogonalLoop=1;jettySize=auto;html=1;exitX=1;exitY=0.25;exitDx=0;exitDy=0;startArrow=classic;startFill=1;" parent="1" edge="1">
          <mxGeometry relative="1" as="geometry">
            <mxPoint x="400" y="440" as="targetPoint" />
            <mxPoint x="278.76" y="440.0000000000001" as="sourcePoint" />
          </mxGeometry>
        </mxCell>
        <mxCell id="bgm6wxLMQWX_yGzGKck9-84" value="&lt;font face=&quot;jetbrains mono&quot;&gt;16b&lt;/font&gt;&lt;div&gt;&lt;font face=&quot;jetbrains mono&quot;&gt;Data&lt;/font&gt;&lt;/div&gt;" style="edgeLabel;html=1;align=center;verticalAlign=middle;resizable=0;points=[];" parent="bgm6wxLMQWX_yGzGKck9-74" vertex="1" connectable="0">
          <mxGeometry x="-0.09" relative="1" as="geometry">
            <mxPoint x="3" as="offset" />
          </mxGeometry>
        </mxCell>
        <mxCell id="YUyXwFJU9MH_SdsQyZb2-10" style="edgeStyle=orthogonalEdgeStyle;rounded=0;orthogonalLoop=1;jettySize=auto;html=1;entryX=0.5;entryY=0;entryDx=0;entryDy=0;" edge="1" parent="1" source="bgm6wxLMQWX_yGzGKck9-2" target="YUyXwFJU9MH_SdsQyZb2-9">
          <mxGeometry relative="1" as="geometry" />
        </mxCell>
        <mxCell id="bgm6wxLMQWX_yGzGKck9-2" value="Register File" style="rounded=0;whiteSpace=wrap;html=1;fontFamily=jetbrains mono;fontSize=13;points=[[0,0,0,0,0],[0,0.25,0,0,0],[0,0.5,0,0,0],[0,0.75,0,0,0],[0,1,0,0,0],[0.13,0,0,0,0],[0.25,0,0,0,0],[0.25,1,0,0,0],[0.5,0,0,0,0],[0.5,1,0,0,0],[0.75,0,0,0,0],[0.75,1,0,0,0],[1,0,0,0,0],[1,0.25,0,0,0],[1,0.5,0,0,0],[1,0.75,0,0,0],[1,1,0,0,0]];" parent="1" vertex="1">
          <mxGeometry x="120" y="400" width="160" height="120" as="geometry" />
        </mxCell>
        <mxCell id="bgm6wxLMQWX_yGzGKck9-89" style="edgeStyle=orthogonalEdgeStyle;rounded=0;orthogonalLoop=1;jettySize=auto;html=1;entryX=0.5;entryY=0;entryDx=0;entryDy=0;startArrow=classic;startFill=1;" parent="1" source="bgm6wxLMQWX_yGzGKck9-7" target="bgm6wxLMQWX_yGzGKck9-8" edge="1">
          <mxGeometry relative="1" as="geometry" />
        </mxCell>
        <mxCell id="LC9t9_Y2tX1t1bn_03ZO-25" style="edgeStyle=orthogonalEdgeStyle;rounded=0;orthogonalLoop=1;jettySize=auto;html=1;exitX=0;exitY=0.5;exitDx=0;exitDy=0;startArrow=classic;startFill=1;endArrow=none;endFill=0;" parent="1" source="bgm6wxLMQWX_yGzGKck9-7" edge="1">
          <mxGeometry relative="1" as="geometry">
            <mxPoint x="400" y="370" as="targetPoint" />
          </mxGeometry>
        </mxCell>
        <mxCell id="bgm6wxLMQWX_yGzGKck9-7" value="Memory Address Register" style="rounded=0;whiteSpace=wrap;html=1;fontFamily=jetbrains mono;fontSize=13;" parent="1" vertex="1">
          <mxGeometry x="480" y="330" width="160" height="80" as="geometry" />
        </mxCell>
        <mxCell id="LC9t9_Y2tX1t1bn_03ZO-24" style="edgeStyle=orthogonalEdgeStyle;rounded=0;orthogonalLoop=1;jettySize=auto;html=1;exitX=0;exitY=0.5;exitDx=0;exitDy=0;startArrow=classic;startFill=1;" parent="1" source="bgm6wxLMQWX_yGzGKck9-8" edge="1">
          <mxGeometry relative="1" as="geometry">
            <mxPoint x="400" y="490" as="targetPoint" />
          </mxGeometry>
        </mxCell>
        <mxCell id="bgm6wxLMQWX_yGzGKck9-8" value="Memory Data Register" style="rounded=0;whiteSpace=wrap;html=1;fontFamily=jetbrains mono;fontSize=13;" parent="1" vertex="1">
          <mxGeometry x="480" y="450" width="160" height="80" as="geometry" />
        </mxCell>
        <mxCell id="bgm6wxLMQWX_yGzGKck9-9" value="Memory" style="rounded=0;whiteSpace=wrap;html=1;fontFamily=jetbrains mono;fontSize=13;" parent="1" vertex="1">
          <mxGeometry x="720" y="290" width="80" height="280" as="geometry" />
        </mxCell>
        <mxCell id="LC9t9_Y2tX1t1bn_03ZO-12" style="edgeStyle=orthogonalEdgeStyle;rounded=0;orthogonalLoop=1;jettySize=auto;html=1;exitX=0.5;exitY=1;exitDx=0;exitDy=0;entryX=0.5;entryY=0;entryDx=0;entryDy=0;entryPerimeter=0;" parent="1" source="LC9t9_Y2tX1t1bn_03ZO-16" target="bgm6wxLMQWX_yGzGKck9-2" edge="1">
          <mxGeometry relative="1" as="geometry">
            <mxPoint x="140.73076923076923" y="390" as="targetPoint" />
            <Array as="points" />
          </mxGeometry>
        </mxCell>
        <mxCell id="LC9t9_Y2tX1t1bn_03ZO-28" style="edgeStyle=orthogonalEdgeStyle;rounded=0;orthogonalLoop=1;jettySize=auto;html=1;startArrow=classic;startFill=1;" parent="1" source="bgm6wxLMQWX_yGzGKck9-10" edge="1">
          <mxGeometry relative="1" as="geometry">
            <mxPoint x="400" y="255" as="targetPoint" />
            <Array as="points">
              <mxPoint x="400" y="255" />
            </Array>
          </mxGeometry>
        </mxCell>
        <mxCell id="YUyXwFJU9MH_SdsQyZb2-1" value="" style="edgeStyle=orthogonalEdgeStyle;rounded=0;orthogonalLoop=1;jettySize=auto;html=1;" edge="1" parent="1" source="bgm6wxLMQWX_yGzGKck9-10" target="LC9t9_Y2tX1t1bn_03ZO-16">
          <mxGeometry relative="1" as="geometry" />
        </mxCell>
        <mxCell id="bgm6wxLMQWX_yGzGKck9-10" value="Instruction Register" style="rounded=0;whiteSpace=wrap;html=1;fontFamily=jetbrains mono;fontSize=13;points=[[0,0,0,0,0],[0,0.25,0,0,0],[0,0.5,0,0,0],[0,0.75,0,0,0],[0,1,0,0,0],[0.13,1,0,0,0],[0.25,0,0,0,0],[0.25,1,0,0,0],[0.5,0,0,0,0],[0.5,1,0,0,0],[0.75,0,0,0,0],[0.75,1,0,0,0],[1,0,0,0,0],[1,0.25,0,0,0],[1,0.5,0,0,0],[1,0.75,0,0,0],[1,1,0,0,0]];" parent="1" vertex="1">
          <mxGeometry x="120.01" y="200" width="160" height="110" as="geometry" />
        </mxCell>
        <mxCell id="bgm6wxLMQWX_yGzGKck9-70" style="edgeStyle=none;rounded=0;orthogonalLoop=1;jettySize=auto;html=1;exitX=0.25;exitY=1;exitDx=0;exitDy=0;entryX=0;entryY=0.899;entryDx=0;entryDy=0;entryPerimeter=0;" parent="1" source="bgm6wxLMQWX_yGzGKck9-61" target="bgm6wxLMQWX_yGzGKck9-58" edge="1">
          <mxGeometry relative="1" as="geometry">
            <mxPoint x="130.01" y="690" as="targetPoint" />
          </mxGeometry>
        </mxCell>
        <mxCell id="bgm6wxLMQWX_yGzGKck9-73" style="edgeStyle=orthogonalEdgeStyle;rounded=0;orthogonalLoop=1;jettySize=auto;html=1;startArrow=classic;startFill=1;endArrow=none;endFill=0;exitX=1;exitY=0.5;exitDx=0;exitDy=0;" parent="1" source="bgm6wxLMQWX_yGzGKck9-61" edge="1">
          <mxGeometry relative="1" as="geometry">
            <mxPoint x="400" y="640" as="targetPoint" />
            <mxPoint x="140.01" y="640" as="sourcePoint" />
          </mxGeometry>
        </mxCell>
        <mxCell id="bgm6wxLMQWX_yGzGKck9-61" value="X" style="rounded=0;whiteSpace=wrap;html=1;fontFamily=jetbrains mono;fontSize=13;" parent="1" vertex="1">
          <mxGeometry x="110.01" y="620" width="80" height="40" as="geometry" />
        </mxCell>
        <mxCell id="bgm6wxLMQWX_yGzGKck9-69" value="" style="group" parent="1" vertex="1" connectable="0">
          <mxGeometry x="110.015" y="699.995" width="198.75" height="80.93500000000006" as="geometry" />
        </mxCell>
        <mxCell id="bgm6wxLMQWX_yGzGKck9-58" value="" style="shape=stencil(tZXRjoIwEEW/pq+bQsPq6wb1PyqOS2NtSdvV3b93oGCs0I0IJISkc7mHIb1DCcttySsgKS0J25A0TSjFO66vT2tuKyicL164EXwvwSvWGX2Cqzi4liFUCUa4WmVbQr/wmfpieaGVQojQygbKg44wLhR66a+Hta//C1YV8s/gwLRNNtXd68yPbAFqskSnIbPre95OZ6KGvSaL7NQ81ORNJsuxEgsxy/e8OH0b/aMOfVdUO2oDA8JdFlL6AYt9YMXruesJnXzWF/h/moawnVsK9eC+/wxaP5sKWI0FPGWMTvOvx9qz0P+ZTfOzsf7Q/sL+FVLbaHKwHgkPHguDmWs8vcQ2VX+ONIUb);whiteSpace=wrap;html=1;rotation=90;strokeWidth=1.5;fontSize=13;container=0;points=[[0,0,0,0,0],[0,0.3,0,-38,0],[0,1,0,0,0],[0.5,0,0,0,0],[0.5,1,0,0,0],[1,0.3,0,39,0],[1,0.5,0,0,0]];" parent="bgm6wxLMQWX_yGzGKck9-69" vertex="1">
          <mxGeometry x="59.065" y="-59.06499999999994" width="80.62" height="198.75" as="geometry" />
        </mxCell>
        <mxCell id="bgm6wxLMQWX_yGzGKck9-60" value="&lt;font face=&quot;jetbrains mono&quot; style=&quot;font-size: 21px;&quot;&gt;ALU&lt;/font&gt;" style="text;strokeColor=none;align=center;fillColor=none;html=1;verticalAlign=middle;whiteSpace=wrap;rounded=0;fontSize=21;container=0;" parent="bgm6wxLMQWX_yGzGKck9-69" vertex="1">
          <mxGeometry x="69.375" y="40.93500000000006" width="59.37" height="40" as="geometry" />
        </mxCell>
        <mxCell id="bgm6wxLMQWX_yGzGKck9-71" value="" style="edgeStyle=none;orthogonalLoop=1;jettySize=auto;html=1;rounded=0;entryX=0;entryY=0.094;entryDx=0;entryDy=0;entryPerimeter=0;" parent="1" target="bgm6wxLMQWX_yGzGKck9-58" edge="1">
          <mxGeometry width="80" relative="1" as="geometry">
            <mxPoint x="400" y="660" as="sourcePoint" />
            <mxPoint x="250.01" y="700" as="targetPoint" />
            <Array as="points">
              <mxPoint x="290.01" y="660" />
            </Array>
          </mxGeometry>
        </mxCell>
        <mxCell id="bgm6wxLMQWX_yGzGKck9-91" style="edgeStyle=orthogonalEdgeStyle;rounded=0;orthogonalLoop=1;jettySize=auto;html=1;entryX=0;entryY=0.714;entryDx=0;entryDy=0;entryPerimeter=0;startArrow=classic;startFill=1;" parent="1" source="bgm6wxLMQWX_yGzGKck9-8" target="bgm6wxLMQWX_yGzGKck9-9" edge="1">
          <mxGeometry relative="1" as="geometry" />
        </mxCell>
        <mxCell id="bgm6wxLMQWX_yGzGKck9-92" style="edgeStyle=orthogonalEdgeStyle;rounded=0;orthogonalLoop=1;jettySize=auto;html=1;entryX=0;entryY=0.714;entryDx=0;entryDy=0;entryPerimeter=0;startArrow=classic;startFill=1;" parent="1" edge="1">
          <mxGeometry relative="1" as="geometry">
            <mxPoint x="641" y="370" as="sourcePoint" />
            <mxPoint x="720" y="370" as="targetPoint" />
          </mxGeometry>
        </mxCell>
        <mxCell id="bgm6wxLMQWX_yGzGKck9-99" value="Control Logic" style="rounded=0;whiteSpace=wrap;html=1;fontFamily=jetbrains mono;fontSize=13;" parent="1" vertex="1">
          <mxGeometry x="450" y="840" width="230" height="80" as="geometry" />
        </mxCell>
        <mxCell id="bgm6wxLMQWX_yGzGKck9-102" style="edgeStyle=orthogonalEdgeStyle;rounded=0;orthogonalLoop=1;jettySize=auto;html=1;exitX=1;exitY=0.5;exitDx=0;exitDy=0;" parent="1" source="bgm6wxLMQWX_yGzGKck9-130" edge="1">
          <mxGeometry relative="1" as="geometry">
            <mxPoint x="400" y="830" as="targetPoint" />
            <mxPoint x="320.01" y="830" as="sourcePoint" />
          </mxGeometry>
        </mxCell>
        <mxCell id="bgm6wxLMQWX_yGzGKck9-100" value="Y" style="rounded=0;whiteSpace=wrap;html=1;fontFamily=jetbrains mono;fontSize=13;" parent="1" vertex="1">
          <mxGeometry x="169.07" y="810" width="80" height="40" as="geometry" />
        </mxCell>
        <mxCell id="bgm6wxLMQWX_yGzGKck9-101" style="edgeStyle=orthogonalEdgeStyle;rounded=0;orthogonalLoop=1;jettySize=auto;html=1;entryX=0.5;entryY=0;entryDx=0;entryDy=0;" parent="1" source="bgm6wxLMQWX_yGzGKck9-60" target="bgm6wxLMQWX_yGzGKck9-100" edge="1">
          <mxGeometry relative="1" as="geometry" />
        </mxCell>
        <mxCell id="bgm6wxLMQWX_yGzGKck9-104" value="&lt;font face=&quot;jetbrains mono&quot;&gt;16b&lt;/font&gt;" style="edgeLabel;html=1;align=center;verticalAlign=middle;resizable=0;points=[];" parent="1" vertex="1" connectable="0">
          <mxGeometry x="340.0084615384615" y="829.9999999999999" as="geometry" />
        </mxCell>
        <mxCell id="LC9t9_Y2tX1t1bn_03ZO-29" style="edgeStyle=orthogonalEdgeStyle;rounded=0;orthogonalLoop=1;jettySize=auto;html=1;startArrow=classic;startFill=1;" parent="1" source="bgm6wxLMQWX_yGzGKck9-106" edge="1">
          <mxGeometry relative="1" as="geometry">
            <mxPoint x="400" y="140" as="targetPoint" />
          </mxGeometry>
        </mxCell>
        <mxCell id="bgm6wxLMQWX_yGzGKck9-106" value="Program Counter" style="rounded=0;whiteSpace=wrap;html=1;fontFamily=jetbrains mono;fontSize=13;" parent="1" vertex="1">
          <mxGeometry x="120.01" y="100" width="160" height="80" as="geometry" />
        </mxCell>
        <mxCell id="bgm6wxLMQWX_yGzGKck9-115" value="" style="endArrow=diamond;html=1;rounded=0;entryX=0;entryY=0.25;entryDx=0;entryDy=0;endFill=1;endSize=6;targetPerimeterSpacing=0;sourcePerimeterSpacing=0;startArrow=none;startFill=0;" parent="1" edge="1">
          <mxGeometry width="50" height="50" relative="1" as="geometry">
            <mxPoint x="78.76" y="110" as="sourcePoint" />
            <mxPoint x="118.76" y="110" as="targetPoint" />
          </mxGeometry>
        </mxCell>
        <mxCell id="bgm6wxLMQWX_yGzGKck9-120" value="&lt;font style=&quot;font-size: 11px;&quot;&gt;PC&lt;/font&gt;&lt;font style=&quot;&quot; size=&quot;1&quot;&gt;&lt;sub&gt;in&lt;/sub&gt;&lt;/font&gt;" style="rounded=0;whiteSpace=wrap;html=1;fontFamily=jetbrains mono;fontSize=13;strokeWidth=1;dashed=1;fillColor=#FFFF66;fontColor=#000000;" parent="1" vertex="1">
          <mxGeometry x="38.76" y="100" width="40" height="20" as="geometry" />
        </mxCell>
        <mxCell id="bgm6wxLMQWX_yGzGKck9-121" value="" style="endArrow=diamond;html=1;rounded=0;entryX=0;entryY=0.25;entryDx=0;entryDy=0;endFill=1;endSize=6;targetPerimeterSpacing=0;sourcePerimeterSpacing=0;startArrow=none;startFill=0;" parent="1" edge="1">
          <mxGeometry width="50" height="50" relative="1" as="geometry">
            <mxPoint x="78.76" y="140" as="sourcePoint" />
            <mxPoint x="118.76" y="140" as="targetPoint" />
          </mxGeometry>
        </mxCell>
        <mxCell id="bgm6wxLMQWX_yGzGKck9-122" value="&lt;font style=&quot;font-size: 11px;&quot;&gt;PC&lt;sub&gt;out&lt;/sub&gt;&lt;/font&gt;" style="rounded=0;whiteSpace=wrap;html=1;fontFamily=jetbrains mono;fontSize=13;strokeWidth=1;dashed=1;fillColor=#FFFF66;fontColor=#000000;" parent="1" vertex="1">
          <mxGeometry x="38.76" y="130" width="40" height="20" as="geometry" />
        </mxCell>
        <mxCell id="bgm6wxLMQWX_yGzGKck9-123" value="" style="endArrow=diamond;html=1;rounded=0;entryX=0;entryY=0.25;entryDx=0;entryDy=0;endFill=1;endSize=6;targetPerimeterSpacing=0;sourcePerimeterSpacing=0;startArrow=none;startFill=0;" parent="1" edge="1">
          <mxGeometry width="50" height="50" relative="1" as="geometry">
            <mxPoint x="78.78000000000002" y="210" as="sourcePoint" />
            <mxPoint x="118.78000000000002" y="210" as="targetPoint" />
          </mxGeometry>
        </mxCell>
        <mxCell id="bgm6wxLMQWX_yGzGKck9-124" value="&lt;font style=&quot;font-size: 11px;&quot;&gt;IR&lt;sub&gt;in&lt;/sub&gt;&lt;/font&gt;" style="rounded=0;whiteSpace=wrap;html=1;fontFamily=jetbrains mono;fontSize=13;strokeWidth=1;dashed=1;fillColor=#FFFF66;fontColor=#000000;" parent="1" vertex="1">
          <mxGeometry x="38.779999999999994" y="200" width="40" height="20" as="geometry" />
        </mxCell>
        <mxCell id="bgm6wxLMQWX_yGzGKck9-126" value="" style="endArrow=diamond;html=1;rounded=0;entryX=0;entryY=0.25;entryDx=0;entryDy=0;endFill=1;endSize=6;targetPerimeterSpacing=0;sourcePerimeterSpacing=0;startArrow=none;startFill=0;exitX=1;exitY=0.5;exitDx=0;exitDy=0;" parent="1" edge="1" source="bgm6wxLMQWX_yGzGKck9-127">
          <mxGeometry width="50" height="50" relative="1" as="geometry">
            <mxPoint x="78.78000000000002" y="239.76" as="sourcePoint" />
            <mxPoint x="118.78000000000002" y="239.76" as="targetPoint" />
          </mxGeometry>
        </mxCell>
        <mxCell id="bgm6wxLMQWX_yGzGKck9-127" value="&lt;font style=&quot;&quot;&gt;&lt;span style=&quot;font-size: 11px;&quot;&gt;V&lt;sub&gt;out&lt;/sub&gt;&lt;/span&gt;&lt;/font&gt;" style="rounded=0;whiteSpace=wrap;html=1;fontFamily=jetbrains mono;fontSize=13;strokeWidth=1;dashed=1;fillColor=#FFFF66;fontColor=#000000;" parent="1" vertex="1">
          <mxGeometry x="38.779999999999994" y="230" width="40" height="20" as="geometry" />
        </mxCell>
        <mxCell id="bgm6wxLMQWX_yGzGKck9-128" value="" style="endArrow=diamond;html=1;rounded=0;endFill=1;endSize=6;targetPerimeterSpacing=0;sourcePerimeterSpacing=0;startArrow=none;startFill=0;exitX=1;exitY=0.5;exitDx=0;exitDy=0;" parent="1" source="bgm6wxLMQWX_yGzGKck9-129" edge="1">
          <mxGeometry width="50" height="50" relative="1" as="geometry">
            <mxPoint x="250.95" y="870" as="sourcePoint" />
            <mxPoint x="289.01" y="837" as="targetPoint" />
            <Array as="points">
              <mxPoint x="290.01" y="870" />
            </Array>
          </mxGeometry>
        </mxCell>
        <mxCell id="bgm6wxLMQWX_yGzGKck9-129" value="&lt;font style=&quot;font-size: 11px;&quot;&gt;Y&lt;sub&gt;out&lt;/sub&gt;&lt;/font&gt;" style="rounded=0;whiteSpace=wrap;html=1;fontFamily=jetbrains mono;fontSize=13;strokeWidth=1;dashed=1;fillColor=#FFFF66;fontColor=#000000;" parent="1" vertex="1">
          <mxGeometry x="30.009999999999998" y="860" width="40" height="20" as="geometry" />
        </mxCell>
        <mxCell id="bgm6wxLMQWX_yGzGKck9-131" style="edgeStyle=orthogonalEdgeStyle;rounded=0;orthogonalLoop=1;jettySize=auto;html=1;exitX=0;exitY=0.5;exitDx=0;exitDy=0;entryX=1;entryY=0.5;entryDx=0;entryDy=0;startArrow=none;startFill=0;endArrow=none;endFill=0;" parent="1" source="bgm6wxLMQWX_yGzGKck9-130" target="bgm6wxLMQWX_yGzGKck9-100" edge="1">
          <mxGeometry relative="1" as="geometry" />
        </mxCell>
        <mxCell id="bgm6wxLMQWX_yGzGKck9-130" value="" style="verticalLabelPosition=bottom;shadow=0;dashed=0;align=center;html=1;verticalAlign=top;shape=mxgraph.electrical.logic_gates.buffer2;" parent="1" vertex="1">
          <mxGeometry x="268.77" y="815" width="40" height="30" as="geometry" />
        </mxCell>
        <mxCell id="bgm6wxLMQWX_yGzGKck9-132" value="" style="endArrow=diamond;html=1;rounded=0;entryX=0;entryY=0.25;entryDx=0;entryDy=0;endFill=1;endSize=6;targetPerimeterSpacing=0;sourcePerimeterSpacing=0;startArrow=none;startFill=0;exitX=1;exitY=0.5;exitDx=0;exitDy=0;" parent="1" source="bgm6wxLMQWX_yGzGKck9-133" edge="1">
          <mxGeometry width="50" height="50" relative="1" as="geometry">
            <mxPoint x="129.07" y="830" as="sourcePoint" />
            <mxPoint x="169.07" y="830" as="targetPoint" />
          </mxGeometry>
        </mxCell>
        <mxCell id="bgm6wxLMQWX_yGzGKck9-133" value="&lt;span style=&quot;font-size: 11px;&quot;&gt;Y&lt;sub&gt;in&lt;/sub&gt;&lt;/span&gt;" style="rounded=0;whiteSpace=wrap;html=1;fontFamily=jetbrains mono;fontSize=13;strokeWidth=1;dashed=1;fillColor=#FFFF66;fontColor=#000000;" parent="1" vertex="1">
          <mxGeometry x="30.009999999999998" y="820" width="40" height="20" as="geometry" />
        </mxCell>
        <mxCell id="bgm6wxLMQWX_yGzGKck9-134" value="" style="endArrow=diamond;html=1;rounded=0;entryX=0;entryY=0.25;entryDx=0;entryDy=0;endFill=1;endSize=6;targetPerimeterSpacing=0;sourcePerimeterSpacing=0;startArrow=none;startFill=0;exitX=1;exitY=0.5;exitDx=0;exitDy=0;" parent="1" source="bgm6wxLMQWX_yGzGKck9-135" edge="1">
          <mxGeometry width="50" height="50" relative="1" as="geometry">
            <mxPoint x="70.01" y="640" as="sourcePoint" />
            <mxPoint x="110.01" y="640" as="targetPoint" />
          </mxGeometry>
        </mxCell>
        <mxCell id="bgm6wxLMQWX_yGzGKck9-135" value="&lt;span style=&quot;font-size: 11px;&quot;&gt;X&lt;sub&gt;in&lt;/sub&gt;&lt;/span&gt;" style="rounded=0;whiteSpace=wrap;html=1;fontFamily=jetbrains mono;fontSize=13;strokeWidth=1;dashed=1;fillColor=#FFFF66;fontColor=#000000;" parent="1" vertex="1">
          <mxGeometry x="30.009999999999998" y="630" width="40" height="20" as="geometry" />
        </mxCell>
        <mxCell id="n07r1d7HXpZVxYv5g-Mc-14" value="&lt;span style=&quot;font-size: 11px;&quot;&gt;ALU&lt;/span&gt;&lt;span style=&quot;font-size: 8.33333px;&quot;&gt;&lt;sub&gt;CTRL&lt;/sub&gt;&lt;/span&gt;" style="rounded=0;whiteSpace=wrap;html=1;fontFamily=jetbrains mono;fontSize=13;strokeWidth=1;dashed=1;fillColor=#FFFF66;fontColor=#000000;" parent="1" vertex="1">
          <mxGeometry x="30.009999999999998" y="725" width="40" height="20" as="geometry" />
        </mxCell>
        <mxCell id="n07r1d7HXpZVxYv5g-Mc-15" value="" style="endArrow=diamond;html=1;rounded=0;endFill=1;endSize=6;targetPerimeterSpacing=0;sourcePerimeterSpacing=0;startArrow=none;startFill=0;exitX=1;exitY=0.5;exitDx=0;exitDy=0;" parent="1" edge="1">
          <mxGeometry width="50" height="50" relative="1" as="geometry">
            <mxPoint x="70.01" y="735" as="sourcePoint" />
            <mxPoint x="135.01" y="734" as="targetPoint" />
          </mxGeometry>
        </mxCell>
        <mxCell id="wqojDmfeKpwbc1v5SeDq-1" value="4b" style="edgeLabel;html=1;align=center;verticalAlign=middle;resizable=0;points=[];" parent="n07r1d7HXpZVxYv5g-Mc-15" vertex="1" connectable="0">
          <mxGeometry x="-0.2714" y="1" relative="1" as="geometry">
            <mxPoint as="offset" />
          </mxGeometry>
        </mxCell>
        <mxCell id="n07r1d7HXpZVxYv5g-Mc-19" value="Shift Control" style="rounded=0;whiteSpace=wrap;html=1;fontFamily=jetbrains mono;fontSize=13;" parent="1" vertex="1">
          <mxGeometry x="480" y="720" width="80" height="40" as="geometry" />
        </mxCell>
        <mxCell id="n07r1d7HXpZVxYv5g-Mc-20" style="rounded=0;orthogonalLoop=1;jettySize=auto;html=1;startArrow=classic;startFill=1;endArrow=none;endFill=0;exitX=0;exitY=0.5;exitDx=0;exitDy=0;" parent="1" source="n07r1d7HXpZVxYv5g-Mc-19" edge="1">
          <mxGeometry relative="1" as="geometry">
            <mxPoint x="400" y="740.0699999999999" as="targetPoint" />
            <mxPoint x="501" y="840.0699999999999" as="sourcePoint" />
          </mxGeometry>
        </mxCell>
        <mxCell id="n07r1d7HXpZVxYv5g-Mc-22" value="&lt;span style=&quot;font-size: 11px;&quot;&gt;SC&lt;sub&gt;ld&lt;/sub&gt;&lt;/span&gt;" style="rounded=0;whiteSpace=wrap;html=1;fontFamily=jetbrains mono;fontSize=13;strokeWidth=1;dashed=1;fillColor=#FFFF66;imageAspect=1;absoluteArcSize=0;glass=0;fontColor=#191919;" parent="1" vertex="1">
          <mxGeometry x="480" y="780" width="35" height="20" as="geometry" />
        </mxCell>
        <mxCell id="n07r1d7HXpZVxYv5g-Mc-24" value="&lt;span style=&quot;font-size: 11px;&quot;&gt;SC&lt;/span&gt;&lt;span style=&quot;font-size: 8.33333px;&quot;&gt;&lt;sub&gt;dec&lt;/sub&gt;&lt;/span&gt;" style="rounded=0;whiteSpace=wrap;html=1;fontFamily=jetbrains mono;fontSize=13;strokeWidth=1;dashed=1;fillColor=#FFFF66;fontColor=#191919;" parent="1" vertex="1">
          <mxGeometry x="524.5" y="780" width="35" height="20" as="geometry" />
        </mxCell>
        <mxCell id="n07r1d7HXpZVxYv5g-Mc-25" value="&lt;span style=&quot;font-size: 11px;&quot;&gt;SC&lt;sub&gt;n=0&lt;/sub&gt;&lt;/span&gt;" style="rounded=0;whiteSpace=wrap;html=1;fontFamily=jetbrains mono;fontSize=13;strokeWidth=1;dashed=1;fillColor=#6666FF;" parent="1" vertex="1">
          <mxGeometry x="600" y="729.9999999999999" width="30" height="20" as="geometry" />
        </mxCell>
        <mxCell id="n07r1d7HXpZVxYv5g-Mc-26" value="" style="endArrow=diamond;html=1;rounded=0;endFill=1;endSize=6;targetPerimeterSpacing=0;sourcePerimeterSpacing=0;startArrow=none;startFill=0;entryX=0;entryY=0.5;entryDx=0;entryDy=0;exitX=1;exitY=0.5;exitDx=0;exitDy=0;" parent="1" target="n07r1d7HXpZVxYv5g-Mc-25" edge="1">
          <mxGeometry width="50" height="50" relative="1" as="geometry">
            <mxPoint x="560" y="739.9999999999999" as="sourcePoint" />
            <mxPoint x="630.94" y="739.9999999999999" as="targetPoint" />
            <Array as="points" />
          </mxGeometry>
        </mxCell>
        <mxCell id="n07r1d7HXpZVxYv5g-Mc-28" value="Timing Control" style="rounded=0;whiteSpace=wrap;html=1;fontFamily=jetbrains mono;fontSize=13;" parent="1" vertex="1">
          <mxGeometry x="480" y="600" width="160" height="80" as="geometry" />
        </mxCell>
        <mxCell id="n07r1d7HXpZVxYv5g-Mc-29" value="&lt;span style=&quot;font-size: 11px;&quot;&gt;TC&lt;sub&gt;T&lt;/sub&gt;&lt;/span&gt;" style="rounded=0;whiteSpace=wrap;html=1;fontFamily=jetbrains mono;fontSize=13;strokeWidth=1;dashed=1;fillColor=#6666FF;" parent="1" vertex="1">
          <mxGeometry x="681" y="600" width="40" height="20" as="geometry" />
        </mxCell>
        <mxCell id="n07r1d7HXpZVxYv5g-Mc-30" value="" style="endArrow=diamond;html=1;rounded=0;endFill=1;endSize=6;targetPerimeterSpacing=0;sourcePerimeterSpacing=0;startArrow=none;startFill=0;entryX=0;entryY=0.5;entryDx=0;entryDy=0;exitX=1;exitY=0.25;exitDx=0;exitDy=0;" parent="1" target="n07r1d7HXpZVxYv5g-Mc-29" edge="1">
          <mxGeometry width="50" height="50" relative="1" as="geometry">
            <mxPoint x="641" y="610" as="sourcePoint" />
            <mxPoint x="712.94" y="610" as="targetPoint" />
            <Array as="points" />
          </mxGeometry>
        </mxCell>
        <mxCell id="LC9t9_Y2tX1t1bn_03ZO-19" value="&lt;font face=&quot;jetbrains mono&quot;&gt;4&lt;/font&gt;&lt;span style=&quot;font-family: &amp;quot;jetbrains mono&amp;quot;;&quot;&gt;b&lt;/span&gt;" style="edgeLabel;html=1;align=center;verticalAlign=middle;resizable=0;points=[];" parent="n07r1d7HXpZVxYv5g-Mc-30" vertex="1" connectable="0">
          <mxGeometry x="-0.1738" relative="1" as="geometry">
            <mxPoint x="-2" as="offset" />
          </mxGeometry>
        </mxCell>
        <mxCell id="n07r1d7HXpZVxYv5g-Mc-32" value="" style="endArrow=diamond;html=1;rounded=0;endFill=1;endSize=6;targetPerimeterSpacing=0;sourcePerimeterSpacing=0;startArrow=none;startFill=0;exitX=0;exitY=0.5;exitDx=0;exitDy=0;" parent="1" edge="1">
          <mxGeometry width="50" height="50" relative="1" as="geometry">
            <mxPoint x="681" y="640" as="sourcePoint" />
            <mxPoint x="641" y="640" as="targetPoint" />
          </mxGeometry>
        </mxCell>
        <mxCell id="n07r1d7HXpZVxYv5g-Mc-33" value="&lt;span style=&quot;font-size: 11px;&quot;&gt;TC&lt;/span&gt;&lt;font size=&quot;1&quot;&gt;&lt;sub&gt;end&lt;/sub&gt;&lt;/font&gt;" style="rounded=0;whiteSpace=wrap;html=1;fontFamily=jetbrains mono;fontSize=13;strokeWidth=1;dashed=1;fillColor=#FFFF66;fontColor=#191919;" parent="1" vertex="1">
          <mxGeometry x="681" y="630" width="40" height="20" as="geometry" />
        </mxCell>
        <mxCell id="LC9t9_Y2tX1t1bn_03ZO-3" value="" style="endArrow=diamond;html=1;rounded=0;entryX=0;entryY=0.25;entryDx=0;entryDy=0;endFill=1;endSize=6;targetPerimeterSpacing=0;sourcePerimeterSpacing=0;startArrow=none;startFill=0;exitX=1;exitY=0.5;exitDx=0;exitDy=0;" parent="1" source="LC9t9_Y2tX1t1bn_03ZO-4" edge="1">
          <mxGeometry width="50" height="50" relative="1" as="geometry">
            <mxPoint x="80" y="410" as="sourcePoint" />
            <mxPoint x="120" y="410" as="targetPoint" />
          </mxGeometry>
        </mxCell>
        <mxCell id="LC9t9_Y2tX1t1bn_03ZO-4" value="&lt;span style=&quot;font-size: 11px;&quot;&gt;RF&lt;/span&gt;&lt;span style=&quot;font-size: 8.33333px;&quot;&gt;in&lt;/span&gt;" style="rounded=0;whiteSpace=wrap;html=1;fontFamily=jetbrains mono;fontSize=13;strokeWidth=1;dashed=1;fillColor=#FFFF66;fontColor=#191919;" parent="1" vertex="1">
          <mxGeometry x="40" y="400" width="40" height="20" as="geometry" />
        </mxCell>
        <mxCell id="LC9t9_Y2tX1t1bn_03ZO-5" value="" style="endArrow=diamond;html=1;rounded=0;entryX=0;entryY=0.25;entryDx=0;entryDy=0;endFill=1;endSize=6;targetPerimeterSpacing=0;sourcePerimeterSpacing=0;startArrow=none;startFill=0;exitX=1;exitY=0.5;exitDx=0;exitDy=0;" parent="1" source="LC9t9_Y2tX1t1bn_03ZO-6" edge="1">
          <mxGeometry width="50" height="50" relative="1" as="geometry">
            <mxPoint x="80.01" y="440" as="sourcePoint" />
            <mxPoint x="120.01" y="440" as="targetPoint" />
          </mxGeometry>
        </mxCell>
        <mxCell id="LC9t9_Y2tX1t1bn_03ZO-6" value="&lt;span style=&quot;font-size: 11px;&quot;&gt;RF&lt;/span&gt;&lt;font size=&quot;1&quot;&gt;&lt;sub&gt;out&lt;/sub&gt;&lt;/font&gt;" style="rounded=0;whiteSpace=wrap;html=1;fontFamily=jetbrains mono;fontSize=13;strokeWidth=1;dashed=1;fillColor=#FFFF66;fontColor=#191919;" parent="1" vertex="1">
          <mxGeometry x="40.01" y="430" width="40" height="20" as="geometry" />
        </mxCell>
        <mxCell id="LC9t9_Y2tX1t1bn_03ZO-21" value="" style="endArrow=none;html=1;rounded=0;strokeWidth=5;fontSize=13;" parent="1" edge="1">
          <mxGeometry width="50" height="50" relative="1" as="geometry">
            <mxPoint x="400" y="890" as="sourcePoint" />
            <mxPoint x="400" y="65" as="targetPoint" />
          </mxGeometry>
        </mxCell>
        <mxCell id="LC9t9_Y2tX1t1bn_03ZO-22" value="16-bit&lt;div&gt;address bus&lt;/div&gt;" style="edgeLabel;html=1;align=center;verticalAlign=middle;resizable=0;points=[];fontFamily=jetbrains mono;fontSize=13;" parent="LC9t9_Y2tX1t1bn_03ZO-21" vertex="1" connectable="0">
          <mxGeometry x="0.8076" relative="1" as="geometry">
            <mxPoint y="-62" as="offset" />
          </mxGeometry>
        </mxCell>
        <mxCell id="LC9t9_Y2tX1t1bn_03ZO-16" value="&lt;span style=&quot;font-size: 11px;&quot;&gt;6b&lt;/span&gt;&lt;div&gt;&lt;span style=&quot;font-size: 11px;&quot;&gt;REG-SEL&lt;/span&gt;&lt;/div&gt;" style="rounded=0;whiteSpace=wrap;html=1;fontFamily=jetbrains mono;fontSize=13;strokeWidth=1;dashed=1;align=center;verticalAlign=middle;" parent="1" vertex="1">
          <mxGeometry x="175.01" y="335" width="49.99" height="30" as="geometry" />
        </mxCell>
        <mxCell id="LC9t9_Y2tX1t1bn_03ZO-33" value="" style="endArrow=diamond;html=1;rounded=0;entryX=0;entryY=0.25;entryDx=0;entryDy=0;endFill=1;endSize=6;targetPerimeterSpacing=0;sourcePerimeterSpacing=0;startArrow=none;startFill=0;exitX=1;exitY=0.5;exitDx=0;exitDy=0;" parent="1" source="LC9t9_Y2tX1t1bn_03ZO-34" edge="1">
          <mxGeometry width="50" height="50" relative="1" as="geometry">
            <mxPoint x="80.01" y="470" as="sourcePoint" />
            <mxPoint x="120.01" y="470" as="targetPoint" />
          </mxGeometry>
        </mxCell>
        <mxCell id="LC9t9_Y2tX1t1bn_03ZO-34" value="&lt;span style=&quot;font-size: 11px;&quot;&gt;DST&lt;sub&gt;sel&lt;/sub&gt;&lt;/span&gt;" style="rounded=0;whiteSpace=wrap;html=1;fontFamily=jetbrains mono;fontSize=13;strokeWidth=1;dashed=1;fillColor=#FFFF66;fontColor=#191919;" parent="1" vertex="1">
          <mxGeometry x="40.01" y="460" width="40" height="20" as="geometry" />
        </mxCell>
        <mxCell id="LC9t9_Y2tX1t1bn_03ZO-38" value="" style="endArrow=diamond;html=1;rounded=0;endFill=1;endSize=6;targetPerimeterSpacing=0;sourcePerimeterSpacing=0;startArrow=none;startFill=0;exitX=0.5;exitY=1;exitDx=0;exitDy=0;" parent="1" source="LC9t9_Y2tX1t1bn_03ZO-39" edge="1">
          <mxGeometry width="50" height="50" relative="1" as="geometry">
            <mxPoint x="515" y="290" as="sourcePoint" />
            <mxPoint x="500" y="330" as="targetPoint" />
          </mxGeometry>
        </mxCell>
        <mxCell id="LC9t9_Y2tX1t1bn_03ZO-39" value="&lt;span style=&quot;font-size: 11px;&quot;&gt;MAR&lt;sub&gt;in&lt;/sub&gt;&lt;/span&gt;" style="rounded=0;whiteSpace=wrap;html=1;fontFamily=jetbrains mono;fontSize=13;strokeWidth=1;dashed=1;fillColor=#FFFF66;fontColor=#000000;" parent="1" vertex="1">
          <mxGeometry x="480" y="280" width="40" height="20" as="geometry" />
        </mxCell>
        <mxCell id="LC9t9_Y2tX1t1bn_03ZO-44" value="" style="endArrow=diamond;html=1;rounded=0;endFill=1;endSize=6;targetPerimeterSpacing=0;sourcePerimeterSpacing=0;startArrow=none;startFill=0;exitX=0.5;exitY=0;exitDx=0;exitDy=0;" parent="1" edge="1">
          <mxGeometry width="50" height="50" relative="1" as="geometry">
            <mxPoint x="560" y="560" as="sourcePoint" />
            <mxPoint x="560" y="530" as="targetPoint" />
          </mxGeometry>
        </mxCell>
        <mxCell id="LC9t9_Y2tX1t1bn_03ZO-45" value="&lt;span style=&quot;font-size: 11px;&quot;&gt;MEM&lt;sub&gt;sel&lt;/sub&gt;&lt;/span&gt;" style="rounded=0;whiteSpace=wrap;html=1;fontFamily=jetbrains mono;fontSize=13;strokeWidth=1;dashed=1;fillColor=#FFFF66;fontColor=#000000;" parent="1" vertex="1">
          <mxGeometry x="540" y="560" width="40" height="20" as="geometry" />
        </mxCell>
        <mxCell id="LC9t9_Y2tX1t1bn_03ZO-47" value="" style="endArrow=diamond;html=1;rounded=0;endFill=1;endSize=6;targetPerimeterSpacing=0;sourcePerimeterSpacing=0;startArrow=none;startFill=0;exitX=0.5;exitY=0;exitDx=0;exitDy=0;" parent="1" source="LC9t9_Y2tX1t1bn_03ZO-48" edge="1">
          <mxGeometry width="50" height="50" relative="1" as="geometry">
            <mxPoint x="616" y="570" as="sourcePoint" />
            <mxPoint x="620" y="530" as="targetPoint" />
          </mxGeometry>
        </mxCell>
        <mxCell id="LC9t9_Y2tX1t1bn_03ZO-48" value="&lt;span style=&quot;font-size: 11px;&quot;&gt;WR&lt;sub&gt;sel&lt;/sub&gt;&lt;/span&gt;" style="rounded=0;whiteSpace=wrap;html=1;fontFamily=jetbrains mono;fontSize=13;strokeWidth=1;dashed=1;fillColor=#FFFF66;fontColor=#000000;" parent="1" vertex="1">
          <mxGeometry x="600" y="560" width="40" height="20" as="geometry" />
        </mxCell>
        <mxCell id="LC9t9_Y2tX1t1bn_03ZO-49" value="" style="endArrow=diamond;html=1;rounded=0;endFill=1;endSize=6;targetPerimeterSpacing=0;sourcePerimeterSpacing=0;startArrow=none;startFill=0;exitX=0.5;exitY=0;exitDx=0;exitDy=0;" parent="1" source="LC9t9_Y2tX1t1bn_03ZO-50" edge="1">
          <mxGeometry width="50" height="50" relative="1" as="geometry">
            <mxPoint x="496" y="570" as="sourcePoint" />
            <mxPoint x="500" y="530" as="targetPoint" />
          </mxGeometry>
        </mxCell>
        <mxCell id="LC9t9_Y2tX1t1bn_03ZO-50" value="&lt;span style=&quot;font-size: 11px;&quot;&gt;MDR&lt;/span&gt;&lt;font size=&quot;1&quot;&gt;&lt;sub&gt;en&lt;/sub&gt;&lt;/font&gt;" style="rounded=0;whiteSpace=wrap;html=1;fontFamily=jetbrains mono;fontSize=13;strokeWidth=1;dashed=1;fillColor=#FFFF66;fontColor=#000000;" parent="1" vertex="1">
          <mxGeometry x="480" y="560" width="40" height="20" as="geometry" />
        </mxCell>
        <mxCell id="LC9t9_Y2tX1t1bn_03ZO-54" value="" style="endArrow=diamond;html=1;rounded=0;entryX=0;entryY=0.25;entryDx=0;entryDy=0;endFill=1;endSize=6;targetPerimeterSpacing=0;sourcePerimeterSpacing=0;startArrow=none;startFill=0;" parent="1" edge="1">
          <mxGeometry width="50" height="50" relative="1" as="geometry">
            <mxPoint x="78.77000000000001" y="170" as="sourcePoint" />
            <mxPoint x="118.77000000000001" y="170" as="targetPoint" />
          </mxGeometry>
        </mxCell>
        <mxCell id="LC9t9_Y2tX1t1bn_03ZO-55" value="&lt;font style=&quot;font-size: 11px;&quot;&gt;PC&lt;sub&gt;inc&lt;/sub&gt;&lt;/font&gt;" style="rounded=0;whiteSpace=wrap;html=1;fontFamily=jetbrains mono;fontSize=13;strokeWidth=1;dashed=1;fillColor=#FFFF66;fontColor=#000000;" parent="1" vertex="1">
          <mxGeometry x="38.769999999999996" y="160" width="40" height="20" as="geometry" />
        </mxCell>
        <mxCell id="YUyXwFJU9MH_SdsQyZb2-2" value="&lt;span style=&quot;font-size: 11px;&quot;&gt;ADDR&lt;/span&gt;" style="rounded=0;whiteSpace=wrap;html=1;fontFamily=jetbrains mono;fontSize=13;strokeWidth=1;dashed=1;fillColor=#6666FF;" vertex="1" parent="1">
          <mxGeometry x="30.01" y="260" width="48.77" height="20" as="geometry" />
        </mxCell>
        <mxCell id="YUyXwFJU9MH_SdsQyZb2-4" value="&lt;span style=&quot;font-size: 11px;&quot;&gt;OPCODE&lt;/span&gt;" style="rounded=0;whiteSpace=wrap;html=1;fontFamily=jetbrains mono;fontSize=13;strokeWidth=1;dashed=1;fillColor=#6666FF;" vertex="1" parent="1">
          <mxGeometry x="30.01" y="290" width="48.77" height="20" as="geometry" />
        </mxCell>
        <mxCell id="YUyXwFJU9MH_SdsQyZb2-5" style="edgeStyle=orthogonalEdgeStyle;rounded=0;orthogonalLoop=1;jettySize=auto;html=1;exitX=1;exitY=0.5;exitDx=0;exitDy=0;startArrow=diamond;startFill=1;endArrow=none;endFill=0;" edge="1" parent="1" source="YUyXwFJU9MH_SdsQyZb2-2">
          <mxGeometry relative="1" as="geometry">
            <mxPoint x="120.01" y="270" as="targetPoint" />
          </mxGeometry>
        </mxCell>
        <mxCell id="YUyXwFJU9MH_SdsQyZb2-6" style="edgeStyle=orthogonalEdgeStyle;rounded=0;orthogonalLoop=1;jettySize=auto;html=1;exitX=1;exitY=0.5;exitDx=0;exitDy=0;startArrow=diamond;startFill=1;endArrow=none;endFill=0;" edge="1" parent="1" source="YUyXwFJU9MH_SdsQyZb2-4">
          <mxGeometry relative="1" as="geometry">
            <mxPoint x="120.01" y="300" as="targetPoint" />
          </mxGeometry>
        </mxCell>
        <mxCell id="YUyXwFJU9MH_SdsQyZb2-11" style="edgeStyle=orthogonalEdgeStyle;rounded=0;orthogonalLoop=1;jettySize=auto;html=1;" edge="1" parent="1" source="YUyXwFJU9MH_SdsQyZb2-9">
          <mxGeometry relative="1" as="geometry">
            <mxPoint x="200" y="610" as="targetPoint" />
            <Array as="points">
              <mxPoint x="200" y="610" />
            </Array>
          </mxGeometry>
        </mxCell>
        <mxCell id="YUyXwFJU9MH_SdsQyZb2-9" value="&lt;span style=&quot;font-size: 11px;&quot;&gt;FLAGS&lt;/span&gt;" style="rounded=0;whiteSpace=wrap;html=1;fontFamily=jetbrains mono;fontSize=13;strokeWidth=1;dashed=1;align=center;verticalAlign=middle;" vertex="1" parent="1">
          <mxGeometry x="175.01999999999998" y="550" width="49.99" height="30" as="geometry" />
        </mxCell>
        <mxCell id="YUyXwFJU9MH_SdsQyZb2-22" style="edgeStyle=orthogonalEdgeStyle;rounded=0;orthogonalLoop=1;jettySize=auto;html=1;endArrow=diamond;endFill=1;" edge="1" parent="1" source="YUyXwFJU9MH_SdsQyZb2-14" target="YUyXwFJU9MH_SdsQyZb2-20">
          <mxGeometry relative="1" as="geometry" />
        </mxCell>
        <mxCell id="YUyXwFJU9MH_SdsQyZb2-24" style="edgeStyle=orthogonalEdgeStyle;rounded=0;orthogonalLoop=1;jettySize=auto;html=1;startArrow=classic;startFill=1;endArrow=none;endFill=0;" edge="1" parent="1" source="YUyXwFJU9MH_SdsQyZb2-14">
          <mxGeometry relative="1" as="geometry">
            <mxPoint x="400" y="160" as="targetPoint" />
            <Array as="points">
              <mxPoint x="441" y="160" />
              <mxPoint x="441" y="161" />
              <mxPoint x="400" y="161" />
            </Array>
          </mxGeometry>
        </mxCell>
        <mxCell id="YUyXwFJU9MH_SdsQyZb2-25" value="&lt;font face=&quot;JetBrains Mono&quot;&gt;3b-LSB&lt;/font&gt;" style="edgeLabel;html=1;align=center;verticalAlign=middle;resizable=0;points=[];" vertex="1" connectable="0" parent="YUyXwFJU9MH_SdsQyZb2-24">
          <mxGeometry x="-0.0597" y="2" relative="1" as="geometry">
            <mxPoint x="-2" y="-2" as="offset" />
          </mxGeometry>
        </mxCell>
        <mxCell id="YUyXwFJU9MH_SdsQyZb2-14" value="Timing Control" style="rounded=0;whiteSpace=wrap;html=1;fontFamily=jetbrains mono;fontSize=13;" vertex="1" parent="1">
          <mxGeometry x="481" y="140" width="160" height="80" as="geometry" />
        </mxCell>
        <mxCell id="YUyXwFJU9MH_SdsQyZb2-20" value="&lt;span style=&quot;font-size: 11px;&quot;&gt;CON&lt;/span&gt;" style="rounded=0;whiteSpace=wrap;html=1;fontFamily=jetbrains mono;fontSize=13;strokeWidth=1;dashed=1;fillColor=#6666FF;" vertex="1" parent="1">
          <mxGeometry x="680" y="170" width="40" height="20" as="geometry" />
        </mxCell>
        <mxCell id="YUyXwFJU9MH_SdsQyZb2-26" value="&lt;span style=&quot;font-size: 11px;&quot;&gt;CON&lt;sub&gt;IN&lt;/sub&gt;&lt;/span&gt;" style="rounded=0;whiteSpace=wrap;html=1;fontFamily=jetbrains mono;fontSize=13;strokeWidth=1;dashed=1;fillColor=#FFFF66;fontColor=#000000;" vertex="1" parent="1">
          <mxGeometry x="680" y="140" width="40" height="20" as="geometry" />
        </mxCell>
        <mxCell id="YUyXwFJU9MH_SdsQyZb2-27" style="edgeStyle=orthogonalEdgeStyle;rounded=0;orthogonalLoop=1;jettySize=auto;html=1;endArrow=diamond;endFill=1;" edge="1" parent="1" source="YUyXwFJU9MH_SdsQyZb2-26">
          <mxGeometry relative="1" as="geometry">
            <mxPoint x="641" y="150" as="targetPoint" />
          </mxGeometry>
        </mxCell>
        <mxCell id="YUyXwFJU9MH_SdsQyZb2-28" value="&lt;span style=&quot;font-size: 11px;&quot;&gt;FLAGS&lt;/span&gt;" style="rounded=0;whiteSpace=wrap;html=1;fontFamily=jetbrains mono;fontSize=13;strokeWidth=1;dashed=1;align=center;verticalAlign=middle;" vertex="1" parent="1">
          <mxGeometry x="678.78" y="200" width="49.99" height="30" as="geometry" />
        </mxCell>
        <mxCell id="YUyXwFJU9MH_SdsQyZb2-30" style="edgeStyle=orthogonalEdgeStyle;rounded=0;orthogonalLoop=1;jettySize=auto;html=1;entryX=0.999;entryY=0.937;entryDx=0;entryDy=0;entryPerimeter=0;" edge="1" parent="1" source="YUyXwFJU9MH_SdsQyZb2-28" target="YUyXwFJU9MH_SdsQyZb2-14">
          <mxGeometry relative="1" as="geometry" />
        </mxCell>
        <mxCell id="YUyXwFJU9MH_SdsQyZb2-36" value="" style="endArrow=diamond;html=1;rounded=0;endFill=1;endSize=6;targetPerimeterSpacing=0;sourcePerimeterSpacing=0;startArrow=none;startFill=0;exitX=0;exitY=0.5;exitDx=0;exitDy=0;" edge="1" parent="1">
          <mxGeometry width="50" height="50" relative="1" as="geometry">
            <mxPoint x="680" y="670" as="sourcePoint" />
            <mxPoint x="640" y="670" as="targetPoint" />
          </mxGeometry>
        </mxCell>
        <mxCell id="YUyXwFJU9MH_SdsQyZb2-37" value="&lt;span style=&quot;font-size: 11px;&quot;&gt;GOTO&lt;sub&gt;6&lt;/sub&gt;&lt;/span&gt;" style="rounded=0;whiteSpace=wrap;html=1;fontFamily=jetbrains mono;fontSize=13;strokeWidth=1;dashed=1;fillColor=#FFFF66;fontColor=#191919;" vertex="1" parent="1">
          <mxGeometry x="680" y="660" width="40" height="20" as="geometry" />
        </mxCell>
        <mxCell id="YUyXwFJU9MH_SdsQyZb2-38" style="edgeStyle=orthogonalEdgeStyle;rounded=0;orthogonalLoop=1;jettySize=auto;html=1;entryX=0.219;entryY=1;entryDx=0;entryDy=0;entryPerimeter=0;" edge="1" parent="1" source="n07r1d7HXpZVxYv5g-Mc-22" target="n07r1d7HXpZVxYv5g-Mc-19">
          <mxGeometry relative="1" as="geometry" />
        </mxCell>
        <mxCell id="YUyXwFJU9MH_SdsQyZb2-39" style="edgeStyle=orthogonalEdgeStyle;rounded=0;orthogonalLoop=1;jettySize=auto;html=1;entryX=0.775;entryY=1;entryDx=0;entryDy=0;entryPerimeter=0;" edge="1" parent="1" source="n07r1d7HXpZVxYv5g-Mc-24" target="n07r1d7HXpZVxYv5g-Mc-19">
          <mxGeometry relative="1" as="geometry" />
        </mxCell>
        <mxCell id="YUyXwFJU9MH_SdsQyZb2-44" value="&lt;span style=&quot;font-size: 11px;&quot;&gt;ADDR&lt;/span&gt;" style="rounded=0;whiteSpace=wrap;html=1;fontFamily=jetbrains mono;fontSize=13;strokeWidth=1;dashed=1;fillColor=#6666FF;" vertex="1" parent="1">
          <mxGeometry x="540" y="940" width="40" height="20" as="geometry" />
        </mxCell>
        <mxCell id="YUyXwFJU9MH_SdsQyZb2-45" value="&lt;span style=&quot;font-size: 11px;&quot;&gt;OPCODE&lt;/span&gt;" style="rounded=0;whiteSpace=wrap;html=1;fontFamily=jetbrains mono;fontSize=13;strokeWidth=1;dashed=1;fillColor=#6666FF;" vertex="1" parent="1">
          <mxGeometry x="590" y="940" width="50" height="20" as="geometry" />
        </mxCell>
        <mxCell id="YUyXwFJU9MH_SdsQyZb2-46" value="&lt;span style=&quot;font-size: 11px;&quot;&gt;SC&lt;sub&gt;n=0&lt;/sub&gt;&lt;/span&gt;" style="rounded=0;whiteSpace=wrap;html=1;fontFamily=jetbrains mono;fontSize=13;strokeWidth=1;dashed=1;fillColor=#6666FF;" vertex="1" parent="1">
          <mxGeometry x="490" y="940" width="40" height="20" as="geometry" />
        </mxCell>
        <mxCell id="YUyXwFJU9MH_SdsQyZb2-47" value="&lt;span style=&quot;font-size: 11px;&quot;&gt;TC&lt;sub&gt;T&lt;/sub&gt;&lt;/span&gt;" style="rounded=0;whiteSpace=wrap;html=1;fontFamily=jetbrains mono;fontSize=13;strokeWidth=1;dashed=1;fillColor=#6666FF;" vertex="1" parent="1">
          <mxGeometry x="650" y="940" width="30" height="20" as="geometry" />
        </mxCell>
        <mxCell id="YUyXwFJU9MH_SdsQyZb2-51" value="&lt;span style=&quot;font-size: 11px;&quot;&gt;CON&lt;/span&gt;" style="rounded=0;whiteSpace=wrap;html=1;fontFamily=jetbrains mono;fontSize=13;strokeWidth=1;dashed=1;fillColor=#6666FF;" vertex="1" parent="1">
          <mxGeometry x="450" y="940" width="30" height="20" as="geometry" />
        </mxCell>
        <mxCell id="YUyXwFJU9MH_SdsQyZb2-53" value="" style="endArrow=diamond;html=1;rounded=0;endFill=1;endSize=6;targetPerimeterSpacing=0;sourcePerimeterSpacing=0;startArrow=none;startFill=0;exitX=1;exitY=0.5;exitDx=0;exitDy=0;" edge="1" parent="1">
          <mxGeometry width="50" height="50" relative="1" as="geometry">
            <mxPoint x="464.86" y="939.9999999999999" as="sourcePoint" />
            <mxPoint x="464.86" y="920.14" as="targetPoint" />
            <Array as="points" />
          </mxGeometry>
        </mxCell>
        <mxCell id="YUyXwFJU9MH_SdsQyZb2-54" value="" style="endArrow=diamond;html=1;rounded=0;endFill=1;endSize=6;targetPerimeterSpacing=0;sourcePerimeterSpacing=0;startArrow=none;startFill=0;exitX=1;exitY=0.5;exitDx=0;exitDy=0;" edge="1" parent="1">
          <mxGeometry width="50" height="50" relative="1" as="geometry">
            <mxPoint x="509.93" y="939.8599999999999" as="sourcePoint" />
            <mxPoint x="509.93" y="920" as="targetPoint" />
            <Array as="points" />
          </mxGeometry>
        </mxCell>
        <mxCell id="YUyXwFJU9MH_SdsQyZb2-55" value="" style="endArrow=diamond;html=1;rounded=0;endFill=1;endSize=6;targetPerimeterSpacing=0;sourcePerimeterSpacing=0;startArrow=none;startFill=0;exitX=1;exitY=0.5;exitDx=0;exitDy=0;" edge="1" parent="1">
          <mxGeometry width="50" height="50" relative="1" as="geometry">
            <mxPoint x="559.5000000000001" y="939.8599999999999" as="sourcePoint" />
            <mxPoint x="559.5000000000001" y="920" as="targetPoint" />
            <Array as="points" />
          </mxGeometry>
        </mxCell>
        <mxCell id="YUyXwFJU9MH_SdsQyZb2-56" value="" style="endArrow=diamond;html=1;rounded=0;endFill=1;endSize=6;targetPerimeterSpacing=0;sourcePerimeterSpacing=0;startArrow=none;startFill=0;exitX=1;exitY=0.5;exitDx=0;exitDy=0;" edge="1" parent="1">
          <mxGeometry width="50" height="50" relative="1" as="geometry">
            <mxPoint x="614.9300000000001" y="939.8599999999999" as="sourcePoint" />
            <mxPoint x="614.9300000000001" y="920" as="targetPoint" />
            <Array as="points" />
          </mxGeometry>
        </mxCell>
        <mxCell id="YUyXwFJU9MH_SdsQyZb2-57" value="" style="endArrow=diamond;html=1;rounded=0;endFill=1;endSize=6;targetPerimeterSpacing=0;sourcePerimeterSpacing=0;startArrow=none;startFill=0;exitX=1;exitY=0.5;exitDx=0;exitDy=0;" edge="1" parent="1">
          <mxGeometry width="50" height="50" relative="1" as="geometry">
            <mxPoint x="664.9300000000001" y="939.8599999999999" as="sourcePoint" />
            <mxPoint x="664.9300000000001" y="920" as="targetPoint" />
            <Array as="points" />
          </mxGeometry>
        </mxCell>
        <mxCell id="YUyXwFJU9MH_SdsQyZb2-58" value="" style="group" vertex="1" connectable="0" parent="1">
          <mxGeometry x="680.0000000000001" y="840" width="69.99999999999989" height="80" as="geometry" />
        </mxCell>
        <mxCell id="bgm6wxLMQWX_yGzGKck9-138" value="" style="endArrow=diamond;html=1;rounded=0;entryX=0;entryY=0.5;entryDx=0;entryDy=0;endFill=1;endSize=6;targetPerimeterSpacing=0;sourcePerimeterSpacing=0;startArrow=none;startFill=0;dashed=1;exitX=0;exitY=0.5;exitDx=0;exitDy=0;" parent="YUyXwFJU9MH_SdsQyZb2-58" target="bgm6wxLMQWX_yGzGKck9-139" edge="1">
          <mxGeometry width="50" height="50" relative="1" as="geometry">
            <mxPoint y="5" as="sourcePoint" />
            <mxPoint x="38.999999999999886" y="5" as="targetPoint" />
          </mxGeometry>
        </mxCell>
        <mxCell id="bgm6wxLMQWX_yGzGKck9-139" value="" style="rounded=0;whiteSpace=wrap;html=1;fontFamily=jetbrains mono;fontSize=13;strokeWidth=1;dashed=1;fillColor=#FFFF66;" parent="YUyXwFJU9MH_SdsQyZb2-58" vertex="1">
          <mxGeometry x="39.999999999999886" width="30" height="10" as="geometry" />
        </mxCell>
        <mxCell id="bgm6wxLMQWX_yGzGKck9-142" value="" style="endArrow=diamond;html=1;rounded=0;entryX=0;entryY=0.5;entryDx=0;entryDy=0;endFill=1;endSize=6;targetPerimeterSpacing=0;sourcePerimeterSpacing=0;startArrow=none;startFill=0;dashed=1;exitX=0;exitY=0.5;exitDx=0;exitDy=0;" parent="YUyXwFJU9MH_SdsQyZb2-58" target="bgm6wxLMQWX_yGzGKck9-143" edge="1">
          <mxGeometry width="50" height="50" relative="1" as="geometry">
            <mxPoint y="25" as="sourcePoint" />
            <mxPoint x="38.999999999999886" y="25" as="targetPoint" />
          </mxGeometry>
        </mxCell>
        <mxCell id="bgm6wxLMQWX_yGzGKck9-149" style="edgeStyle=orthogonalEdgeStyle;rounded=0;orthogonalLoop=1;jettySize=auto;html=1;endArrow=none;endFill=0;dashed=1;dashPattern=1 2;targetPerimeterSpacing=0;" parent="YUyXwFJU9MH_SdsQyZb2-58" edge="1">
          <mxGeometry relative="1" as="geometry">
            <mxPoint x="54.95999999999992" y="33.5" as="sourcePoint" />
            <mxPoint x="54.95999999999992" y="48.5" as="targetPoint" />
          </mxGeometry>
        </mxCell>
        <mxCell id="bgm6wxLMQWX_yGzGKck9-143" value="" style="rounded=0;whiteSpace=wrap;html=1;fontFamily=jetbrains mono;fontSize=13;strokeWidth=1;dashed=1;fillColor=#FFFF66;" parent="YUyXwFJU9MH_SdsQyZb2-58" vertex="1">
          <mxGeometry x="39.999999999999886" y="20" width="30" height="10" as="geometry" />
        </mxCell>
        <mxCell id="bgm6wxLMQWX_yGzGKck9-144" value="" style="endArrow=diamond;html=1;rounded=0;entryX=0;entryY=0.5;entryDx=0;entryDy=0;endFill=1;endSize=6;targetPerimeterSpacing=0;sourcePerimeterSpacing=0;startArrow=none;startFill=0;dashed=1;exitX=0;exitY=0.5;exitDx=0;exitDy=0;" parent="YUyXwFJU9MH_SdsQyZb2-58" target="bgm6wxLMQWX_yGzGKck9-145" edge="1">
          <mxGeometry width="50" height="50" relative="1" as="geometry">
            <mxPoint y="75" as="sourcePoint" />
            <mxPoint x="38.999999999999886" y="75" as="targetPoint" />
          </mxGeometry>
        </mxCell>
        <mxCell id="bgm6wxLMQWX_yGzGKck9-145" value="" style="rounded=0;whiteSpace=wrap;html=1;fontFamily=jetbrains mono;fontSize=13;strokeWidth=1;dashed=1;fillColor=#FFFF66;" parent="YUyXwFJU9MH_SdsQyZb2-58" vertex="1">
          <mxGeometry x="39.999999999999886" y="70" width="30" height="10" as="geometry" />
        </mxCell>
        <mxCell id="bgm6wxLMQWX_yGzGKck9-146" value="" style="endArrow=none;html=1;rounded=0;entryX=1;entryY=0.5;entryDx=0;entryDy=0;endFill=0;endSize=6;targetPerimeterSpacing=0;sourcePerimeterSpacing=0;startArrow=diamond;startFill=1;dashed=1;exitX=0;exitY=0.5;exitDx=0;exitDy=0;" parent="YUyXwFJU9MH_SdsQyZb2-58" source="bgm6wxLMQWX_yGzGKck9-147" edge="1">
          <mxGeometry width="50" height="50" relative="1" as="geometry">
            <mxPoint x="38.999999999999886" y="55" as="sourcePoint" />
            <mxPoint y="55" as="targetPoint" />
          </mxGeometry>
        </mxCell>
        <mxCell id="bgm6wxLMQWX_yGzGKck9-147" value="" style="rounded=0;whiteSpace=wrap;html=1;fontFamily=jetbrains mono;fontSize=13;strokeWidth=1;dashed=1;fillColor=#FFFF66;" parent="YUyXwFJU9MH_SdsQyZb2-58" vertex="1">
          <mxGeometry x="39.999999999999886" y="50" width="30" height="10" as="geometry" />
        </mxCell>
      </root>
    </mxGraphModel>
  </diagram>
  <diagram id="438Gpvw1h984fiysbrWx" name="ALU">
    <mxGraphModel dx="735" dy="429" grid="1" gridSize="10" guides="1" tooltips="1" connect="1" arrows="1" fold="1" page="1" pageScale="1" pageWidth="850" pageHeight="1100" math="0" shadow="0">
      <root>
        <mxCell id="0" />
        <mxCell id="1" parent="0" />
        <mxCell id="tBuJ11QNLGypv5b4rK_Z-20" style="edgeStyle=orthogonalEdgeStyle;rounded=0;orthogonalLoop=1;jettySize=auto;html=1;entryX=0;entryY=0.08;entryDx=0;entryDy=0;entryPerimeter=0;" edge="1" parent="1" source="tBuJ11QNLGypv5b4rK_Z-17" target="tjKsFQWikZEDZ-nvlZU8-2">
          <mxGeometry relative="1" as="geometry" />
        </mxCell>
        <mxCell id="2sON3jHmIwMV_wgL4n0h-1" value="" style="endArrow=none;html=1;rounded=0;strokeWidth=5;" edge="1" parent="1">
          <mxGeometry width="50" height="50" relative="1" as="geometry">
            <mxPoint x="720" y="690" as="sourcePoint" />
            <mxPoint x="720" y="280" as="targetPoint" />
          </mxGeometry>
        </mxCell>
        <mxCell id="2sON3jHmIwMV_wgL4n0h-2" value="BUS" style="edgeLabel;html=1;align=center;verticalAlign=middle;resizable=0;points=[];fontFamily=JetBrains Mono;fontSize=30;" vertex="1" connectable="0" parent="2sON3jHmIwMV_wgL4n0h-1">
          <mxGeometry x="0.9405" y="4" relative="1" as="geometry">
            <mxPoint x="4" y="-42" as="offset" />
          </mxGeometry>
        </mxCell>
        <mxCell id="2sON3jHmIwMV_wgL4n0h-3" value="" style="endArrow=classic;html=1;rounded=0;" edge="1" parent="1">
          <mxGeometry width="50" height="50" relative="1" as="geometry">
            <mxPoint x="720" y="320" as="sourcePoint" />
            <mxPoint x="520" y="320" as="targetPoint" />
          </mxGeometry>
        </mxCell>
        <mxCell id="2sON3jHmIwMV_wgL4n0h-5" value="Din" style="edgeLabel;html=1;align=center;verticalAlign=middle;resizable=0;points=[];fontFamily=JetBrains Mono;fontSize=15;fontColor=default;labelBackgroundColor=default;" vertex="1" connectable="0" parent="2sON3jHmIwMV_wgL4n0h-3">
          <mxGeometry x="-0.0011" y="1" relative="1" as="geometry">
            <mxPoint y="-12" as="offset" />
          </mxGeometry>
        </mxCell>
        <mxCell id="2sON3jHmIwMV_wgL4n0h-7" style="edgeStyle=orthogonalEdgeStyle;rounded=0;orthogonalLoop=1;jettySize=auto;html=1;entryX=0.5;entryY=0;entryDx=0;entryDy=0;" edge="1" parent="1" target="2sON3jHmIwMV_wgL4n0h-9">
          <mxGeometry relative="1" as="geometry">
            <mxPoint x="343.76" y="400" as="targetPoint" />
            <mxPoint x="522.52" y="320.025641025641" as="sourcePoint" />
          </mxGeometry>
        </mxCell>
        <mxCell id="2sON3jHmIwMV_wgL4n0h-8" value="X[0-15]" style="edgeLabel;html=1;align=center;verticalAlign=middle;resizable=0;points=[];fontFamily=JetBrains Mono;fontSize=15;" vertex="1" connectable="0" parent="2sON3jHmIwMV_wgL4n0h-7">
          <mxGeometry x="-0.3579" relative="1" as="geometry">
            <mxPoint x="3" y="-11" as="offset" />
          </mxGeometry>
        </mxCell>
        <mxCell id="2sON3jHmIwMV_wgL4n0h-9" value="&lt;font face=&quot;JetBrains Mono&quot;&gt;X REGISTER&lt;/font&gt;" style="rounded=0;whiteSpace=wrap;html=1;" vertex="1" parent="1">
          <mxGeometry x="375" y="380" width="100" height="30" as="geometry" />
        </mxCell>
        <mxCell id="tjKsFQWikZEDZ-nvlZU8-1" value="" style="group" vertex="1" connectable="0" parent="1">
          <mxGeometry x="410.005" y="509.995" width="198.75" height="80.93500000000006" as="geometry" />
        </mxCell>
        <mxCell id="tjKsFQWikZEDZ-nvlZU8-2" value="" style="shape=stencil(tZXRjoIwEEW/pq+bQsPq6wb1PyqOS2NtSdvV3b93oGCs0I0IJISkc7mHIb1DCcttySsgKS0J25A0TSjFO66vT2tuKyicL164EXwvwSvWGX2Cqzi4liFUCUa4WmVbQr/wmfpieaGVQojQygbKg44wLhR66a+Hta//C1YV8s/gwLRNNtXd68yPbAFqskSnIbPre95OZ6KGvSaL7NQ81ORNJsuxEgsxy/e8OH0b/aMOfVdUO2oDA8JdFlL6AYt9YMXruesJnXzWF/h/moawnVsK9eC+/wxaP5sKWI0FPGWMTvOvx9qz0P+ZTfOzsf7Q/sL+FVLbaHKwHgkPHguDmWs8vcQ2VX+ONIUb);whiteSpace=wrap;html=1;rotation=90;strokeWidth=1.5;fontSize=13;container=0;points=[[0,0,0,0,0],[0,0.3,0,-38,0],[0,1,0,0,0],[0.5,0,0,0,0],[0.5,1,0,0,0],[1,0.3,0,39,0],[1,0.5,0,0,0]];" vertex="1" parent="tjKsFQWikZEDZ-nvlZU8-1">
          <mxGeometry x="59.065" y="-59.06499999999994" width="80.62" height="198.75" as="geometry" />
        </mxCell>
        <mxCell id="tjKsFQWikZEDZ-nvlZU8-3" value="&lt;font face=&quot;jetbrains mono&quot; style=&quot;font-size: 21px;&quot;&gt;ALU&lt;/font&gt;" style="text;strokeColor=none;align=center;fillColor=none;html=1;verticalAlign=middle;whiteSpace=wrap;rounded=0;fontSize=21;container=0;" vertex="1" parent="tjKsFQWikZEDZ-nvlZU8-1">
          <mxGeometry x="69.375" y="40.93500000000006" width="59.37" height="40" as="geometry" />
        </mxCell>
        <mxCell id="tjKsFQWikZEDZ-nvlZU8-4" style="edgeStyle=orthogonalEdgeStyle;rounded=0;orthogonalLoop=1;jettySize=auto;html=1;entryX=0;entryY=0.925;entryDx=0;entryDy=0;entryPerimeter=0;" edge="1" parent="1" source="2sON3jHmIwMV_wgL4n0h-9" target="tjKsFQWikZEDZ-nvlZU8-2">
          <mxGeometry relative="1" as="geometry" />
        </mxCell>
        <mxCell id="tjKsFQWikZEDZ-nvlZU8-10" value="B[0-15]" style="edgeLabel;html=1;align=center;verticalAlign=middle;resizable=0;points=[];fontSize=15;fontFamily=JetBrains Mono;" vertex="1" connectable="0" parent="tjKsFQWikZEDZ-nvlZU8-4">
          <mxGeometry x="-0.04" y="1" relative="1" as="geometry">
            <mxPoint x="-1" y="-7" as="offset" />
          </mxGeometry>
        </mxCell>
        <mxCell id="tBuJ11QNLGypv5b4rK_Z-1" value="" style="endArrow=diamond;html=1;rounded=0;entryX=0;entryY=0.25;entryDx=0;entryDy=0;endFill=1;endSize=6;targetPerimeterSpacing=0;sourcePerimeterSpacing=0;startArrow=none;startFill=0;exitX=1;exitY=0.5;exitDx=0;exitDy=0;" edge="1" parent="1" source="tBuJ11QNLGypv5b4rK_Z-2">
          <mxGeometry width="50" height="50" relative="1" as="geometry">
            <mxPoint x="335" y="395" as="sourcePoint" />
            <mxPoint x="375" y="395" as="targetPoint" />
            <Array as="points">
              <mxPoint x="355" y="395" />
            </Array>
          </mxGeometry>
        </mxCell>
        <mxCell id="tBuJ11QNLGypv5b4rK_Z-2" value="&lt;span style=&quot;font-size: 11px;&quot;&gt;X&lt;sub&gt;in&lt;/sub&gt;&lt;/span&gt;" style="rounded=0;whiteSpace=wrap;html=1;fontFamily=jetbrains mono;fontSize=13;strokeWidth=1;dashed=1;fillColor=#FF4040;" vertex="1" parent="1">
          <mxGeometry x="295" y="385" width="40" height="20" as="geometry" />
        </mxCell>
        <mxCell id="tBuJ11QNLGypv5b4rK_Z-5" value="" style="endArrow=diamond;html=1;rounded=0;entryX=0;entryY=0.25;entryDx=0;entryDy=0;endFill=1;endSize=6;targetPerimeterSpacing=0;sourcePerimeterSpacing=0;startArrow=none;startFill=0;exitX=1;exitY=0.5;exitDx=0;exitDy=0;" edge="1" parent="1" source="tBuJ11QNLGypv5b4rK_Z-6">
          <mxGeometry width="50" height="50" relative="1" as="geometry">
            <mxPoint x="385" y="530" as="sourcePoint" />
            <mxPoint x="425" y="530" as="targetPoint" />
            <Array as="points">
              <mxPoint x="405" y="530" />
            </Array>
          </mxGeometry>
        </mxCell>
        <mxCell id="tBuJ11QNLGypv5b4rK_Z-6" value="&lt;span style=&quot;font-size: 11px;&quot;&gt;ALU-CTRL[0-3]&lt;/span&gt;" style="rounded=0;whiteSpace=wrap;html=1;fontFamily=jetbrains mono;fontSize=13;strokeWidth=1;dashed=1;fillColor=#FF4040;" vertex="1" parent="1">
          <mxGeometry x="290" y="520" width="95" height="20" as="geometry" />
        </mxCell>
        <mxCell id="tBuJ11QNLGypv5b4rK_Z-12" style="edgeStyle=orthogonalEdgeStyle;rounded=0;orthogonalLoop=1;jettySize=auto;html=1;" edge="1" parent="1" source="tBuJ11QNLGypv5b4rK_Z-8">
          <mxGeometry relative="1" as="geometry">
            <mxPoint x="720" y="644.9999999999998" as="targetPoint" />
          </mxGeometry>
        </mxCell>
        <mxCell id="tBuJ11QNLGypv5b4rK_Z-8" value="&lt;font face=&quot;JetBrains Mono&quot;&gt;Y REGISTER&lt;/font&gt;" style="rounded=0;whiteSpace=wrap;html=1;" vertex="1" parent="1">
          <mxGeometry x="459.38" y="620" width="100" height="50" as="geometry" />
        </mxCell>
        <mxCell id="tBuJ11QNLGypv5b4rK_Z-9" style="edgeStyle=orthogonalEdgeStyle;rounded=0;orthogonalLoop=1;jettySize=auto;html=1;entryX=0.5;entryY=0;entryDx=0;entryDy=0;" edge="1" parent="1" source="tjKsFQWikZEDZ-nvlZU8-3" target="tBuJ11QNLGypv5b4rK_Z-8">
          <mxGeometry relative="1" as="geometry" />
        </mxCell>
        <mxCell id="tBuJ11QNLGypv5b4rK_Z-13" value="" style="endArrow=diamond;html=1;rounded=0;entryX=0;entryY=0.25;entryDx=0;entryDy=0;endFill=1;endSize=6;targetPerimeterSpacing=0;sourcePerimeterSpacing=0;startArrow=none;startFill=0;exitX=1;exitY=0.5;exitDx=0;exitDy=0;" edge="1" parent="1" source="tBuJ11QNLGypv5b4rK_Z-14">
          <mxGeometry width="50" height="50" relative="1" as="geometry">
            <mxPoint x="419.38" y="630" as="sourcePoint" />
            <mxPoint x="459.38" y="630" as="targetPoint" />
            <Array as="points">
              <mxPoint x="439.38" y="630" />
            </Array>
          </mxGeometry>
        </mxCell>
        <mxCell id="tBuJ11QNLGypv5b4rK_Z-14" value="&lt;span style=&quot;font-size: 11px;&quot;&gt;Y&lt;sub&gt;in&lt;/sub&gt;&lt;/span&gt;" style="rounded=0;whiteSpace=wrap;html=1;fontFamily=jetbrains mono;fontSize=13;strokeWidth=1;dashed=1;fillColor=#FF4040;" vertex="1" parent="1">
          <mxGeometry x="379.38" y="620" width="40" height="20" as="geometry" />
        </mxCell>
        <mxCell id="tBuJ11QNLGypv5b4rK_Z-15" value="" style="endArrow=diamond;html=1;rounded=0;entryX=0;entryY=0.25;entryDx=0;entryDy=0;endFill=1;endSize=6;targetPerimeterSpacing=0;sourcePerimeterSpacing=0;startArrow=none;startFill=0;exitX=1;exitY=0.5;exitDx=0;exitDy=0;" edge="1" parent="1" source="tBuJ11QNLGypv5b4rK_Z-16">
          <mxGeometry width="50" height="50" relative="1" as="geometry">
            <mxPoint x="419.38" y="660" as="sourcePoint" />
            <mxPoint x="459.38" y="660" as="targetPoint" />
            <Array as="points">
              <mxPoint x="439.38" y="660" />
            </Array>
          </mxGeometry>
        </mxCell>
        <mxCell id="tBuJ11QNLGypv5b4rK_Z-16" value="&lt;span style=&quot;font-size: 11px;&quot;&gt;Y&lt;/span&gt;&lt;font size=&quot;1&quot;&gt;&lt;sub&gt;out&lt;/sub&gt;&lt;/font&gt;" style="rounded=0;whiteSpace=wrap;html=1;fontFamily=jetbrains mono;fontSize=13;strokeWidth=1;dashed=1;fillColor=#FF4040;" vertex="1" parent="1">
          <mxGeometry x="379.38" y="650" width="40" height="20" as="geometry" />
        </mxCell>
        <mxCell id="tBuJ11QNLGypv5b4rK_Z-18" value="" style="edgeStyle=orthogonalEdgeStyle;rounded=0;orthogonalLoop=1;jettySize=auto;html=1;entryX=1;entryY=0.5;entryDx=0;entryDy=0;" edge="1" parent="1" target="tBuJ11QNLGypv5b4rK_Z-17">
          <mxGeometry relative="1" as="geometry">
            <mxPoint x="720" y="390" as="sourcePoint" />
            <mxPoint x="590" y="510" as="targetPoint" />
            <Array as="points">
              <mxPoint x="720" y="320" />
              <mxPoint x="680" y="320" />
              <mxPoint x="680" y="385" />
            </Array>
          </mxGeometry>
        </mxCell>
        <mxCell id="tBuJ11QNLGypv5b4rK_Z-19" value="A[0-15]" style="edgeLabel;html=1;align=center;verticalAlign=middle;resizable=0;points=[];fontSize=15;fontFamily=JetBrains Mono;labelBackgroundColor=default;" vertex="1" connectable="0" parent="tBuJ11QNLGypv5b4rK_Z-18">
          <mxGeometry x="-0.328" y="-1" relative="1" as="geometry">
            <mxPoint x="-125" y="132" as="offset" />
          </mxGeometry>
        </mxCell>
        <mxCell id="tBuJ11QNLGypv5b4rK_Z-17" value="&lt;font face=&quot;JetBrains Mono&quot;&gt;SHIFTER&lt;br&gt;&amp;gt;&amp;gt;&lt;/font&gt;" style="rounded=0;whiteSpace=wrap;html=1;" vertex="1" parent="1">
          <mxGeometry x="549.69" y="360" width="86.24" height="50" as="geometry" />
        </mxCell>
        <mxCell id="tBuJ11QNLGypv5b4rK_Z-21" value="" style="endArrow=diamond;html=1;rounded=0;entryX=0;entryY=0.25;entryDx=0;entryDy=0;endFill=1;endSize=6;targetPerimeterSpacing=0;sourcePerimeterSpacing=0;startArrow=none;startFill=0;exitX=1;exitY=0.5;exitDx=0;exitDy=0;" edge="1" parent="1" source="tBuJ11QNLGypv5b4rK_Z-22">
          <mxGeometry width="50" height="50" relative="1" as="geometry">
            <mxPoint x="509.38" y="373" as="sourcePoint" />
            <mxPoint x="549.38" y="373" as="targetPoint" />
            <Array as="points">
              <mxPoint x="529.38" y="373" />
            </Array>
          </mxGeometry>
        </mxCell>
        <mxCell id="tBuJ11QNLGypv5b4rK_Z-22" value="&lt;span style=&quot;font-size: 11px;&quot;&gt;SH&lt;sub&gt;en&lt;/sub&gt;&lt;/span&gt;" style="rounded=0;whiteSpace=wrap;html=1;fontFamily=jetbrains mono;fontSize=13;strokeWidth=1;dashed=1;fillColor=#FF4040;" vertex="1" parent="1">
          <mxGeometry x="489.38" y="363" width="40" height="20" as="geometry" />
        </mxCell>
        <mxCell id="tBuJ11QNLGypv5b4rK_Z-23" value="" style="endArrow=diamond;html=1;rounded=0;entryX=0;entryY=0.25;entryDx=0;entryDy=0;endFill=1;endSize=6;targetPerimeterSpacing=0;sourcePerimeterSpacing=0;startArrow=none;startFill=0;exitX=1;exitY=0.5;exitDx=0;exitDy=0;" edge="1" parent="1" source="tBuJ11QNLGypv5b4rK_Z-24">
          <mxGeometry width="50" height="50" relative="1" as="geometry">
            <mxPoint x="509.38" y="398" as="sourcePoint" />
            <mxPoint x="549.38" y="398" as="targetPoint" />
            <Array as="points">
              <mxPoint x="529.38" y="398" />
            </Array>
          </mxGeometry>
        </mxCell>
        <mxCell id="tBuJ11QNLGypv5b4rK_Z-24" value="&lt;span style=&quot;font-size: 11px;&quot;&gt;CYC&lt;sub&gt;en&lt;/sub&gt;&lt;/span&gt;" style="rounded=0;whiteSpace=wrap;html=1;fontFamily=jetbrains mono;fontSize=13;strokeWidth=1;dashed=1;fillColor=#FF4040;" vertex="1" parent="1">
          <mxGeometry x="489.38" y="388" width="40" height="20" as="geometry" />
        </mxCell>
      </root>
    </mxGraphModel>
  </diagram>
</mxfile>
